<?xml version="1.0" standalone="no"?>
<!DOCTYPE svg PUBLIC "-//W3C//DTD SVG 20010904//EN"
 "http://www.w3.org/TR/2001/REC-SVG-20010904/DTD/svg10.dtd">
<svg version="1.0" xmlns="http://www.w3.org/2000/svg"
 width="2000.000000pt" height="2000.000000pt" viewBox="0 0 2000.000000 2000.000000"
 preserveAspectRatio="xMidYMid meet">
<metadata>
Created by potrace 1.14, written by Peter Selinger 2001-2017
</metadata>
<g transform="translate(0.000000,2000.000000) scale(0.100000,-0.100000)"
fill="#000000" stroke="none">
<path d="M0 10000 l0 -10000 10000 0 10000 0 0 10000 0 10000 -10000 0 -10000
0 0 -10000z m13246 8058 c13 -95 7 -456 -10 -603 -49 -415 -171 -815 -367
-1206 -290 -580 -669 -1019 -1174 -1358 -236 -158 -473 -281 -710 -366 -293
-106 -524 -149 -800 -150 l-190 0 -8 60 c-14 114 -10 443 8 580 93 719 453
1456 979 2002 525 546 1330 974 2008 1067 150 21 166 23 215 25 l41 1 8 -52z
m-62 -3858 c333 -25 556 -57 792 -115 690 -169 1296 -501 1768 -969 148 -147
341 -376 420 -498 l17 -27 -106 -71 c-288 -193 -618 -498 -854 -790 -347 -430
-590 -924 -706 -1438 -118 -524 -108 -1122 29 -1677 208 -840 726 -1562 1486
-2070 147 -98 376 -228 478 -270 l72 -30 0 -57 c0 -42 -14 -96 -56 -219 -220
-641 -575 -1357 -959 -1939 -249 -376 -589 -844 -791 -1085 -139 -167 -409
-437 -544 -545 -450 -359 -900 -509 -1413 -472 -361 26 -553 81 -1097 315
-395 169 -615 241 -880 286 -348 59 -776 52 -1135 -20 -238 -47 -440 -116
-870 -297 -340 -143 -459 -186 -640 -232 -216 -55 -358 -73 -565 -74 -202 0
-298 15 -482 75 -539 175 -1060 639 -1700 1514 -146 201 -386 547 -475 685
-792 1238 -1347 2814 -1508 4280 -62 570 -61 1213 5 1725 125 978 459 1799
1014 2495 126 158 444 476 601 602 621 497 1337 790 2097 859 208 19 561 7
739 -25 339 -60 581 -137 1194 -378 577 -228 768 -282 990 -283 218 0 388 48
955 270 668 261 925 345 1270 415 315 64 565 81 854 60z"/>
</g>
</svg>
